<?xml version="1.0" encoding="utf-8"?>
<!-- Generator: Adobe Illustrator 26.4.1, SVG Export Plug-In . SVG Version: 6.00 Build 0)  -->
<svg version="1.1" id="Layer_1" xmlns="http://www.w3.org/2000/svg" xmlns:xlink="http://www.w3.org/1999/xlink" x="0px" y="0px"
	 viewBox="0 0 500 284" style="enable-background:new 0 0 500 284;" xml:space="preserve">
<style type="text/css">
	.st0{fill:#FFFFFF;}
</style>
<g>
	<path class="st0" d="M218.6,0h56.8c-44,57.8-87.1,116.3-131.1,174.1c-2,2.7-4.4,5.3-4.8,8.8c0.2,2.5,1.7,4.6,3.2,6.6
		c7.5,10.2,14.8,20.5,22.4,30.6c1.9,2.3,3.7,5.5,7.1,5.4c24.1,0.1,48.2,0,72.4,0c0.2,19.4,0.3,38.8,0.3,58.2
		c-0.9,0.1-2.7,0.2-3.6,0.3h-84.9c-4.6,0.3-9.9-0.6-12.5-4.8c-12.3-18.4-24.5-36.8-36.9-55.2c-12.5,16.8-25.2,33.4-37.2,50.6
		c-2.8,3.5-5,8.3-9.8,9.4H0v-0.5c25-32.1,49.7-64.5,75-96.4c1.6-1.9,2.7-4.5,1.8-7c-1.3-3.4-3.6-6.2-5.5-9.2
		c-21.6-33.2-44.1-66-69.1-96.8C20.2,74,38.2,74,56.1,74c6.4,0.2,12,4.5,15,9.9c12.6,19.7,26.1,38.8,39.5,57.9
		c2.4-2.8,4.5-5.8,6.6-8.8c29.9-42.3,58.1-85.9,90.2-126.6C210,2.8,214.1,0.4,218.6,0z"/>
	<path class="st0" d="M317.9,0h89.2c23,0.5,47,5.9,65.1,20.8c14.3,11.3,23,28.6,26,46.4c2.9,14.9,1.6,30.7-4.2,44.8
		c-4.4,11.1-11.2,21-18.9,30.1c-23.2,28.3-47.9,55.4-71.4,83.4c31.7-0.1,63.3,0,95,0c0,19.5,0,39,0,58.5H312.5c0-12.3,0-24.7,0-37
		c-0.2-2.6,1.8-4.3,3.3-6.1c18.8-20.5,38.6-40.1,58.2-59.8c17-17.8,34.6-35.1,49.1-55c9.3-13.6,18.1-29,17.5-46.1
		c-0.7-10.8-4-22.8-13.4-29.2c-7-5-16-5-24.3-4.8c-30.1,0-60.2,0-90.3,0c0,43.6,0.2,87.1-0.3,130.7c0.1,2.9-3,4.2-5.5,4.1
		c-13,0.2-26-0.7-39,0c-17.8,0-35.6,0-53.4,0c23.2-31.6,46.1-63.4,69.2-95.2c9.6-13.3,19.7-26.4,28.7-40.1c0.3-14.9,0-29.9,0.1-44.9
		C313.8,0.4,316.5,0.1,317.9,0z"/>
</g>
</svg>
